<!DOCTYPE svg PUBLIC "-//W3C//DTD SVG 1.1//EN" "http://www.w3.org/Graphics/SVG/1.1/DTD/svg11.dtd">
<!-- Uploaded to: SVG Repo, www.svgrepo.com, Transformed by: SVG Repo Mixer Tools -->
<svg width="156px" height="156px" viewBox="-4.8 -4.8 57.60 57.60" fill="none" xmlns="http://www.w3.org/2000/svg" stroke="#000000" transform="matrix(-1, 0, 0, 1, 0, 0)">
<g id="SVGRepo_bgCarrier" stroke-width="0"/>
<g id="SVGRepo_tracerCarrier" stroke-linecap="round" stroke-linejoin="round" stroke="#CCCCCC" stroke-width="0.4800000000000001"/>
<g id="SVGRepo_iconCarrier"> <path d="M19 20C22.866 20 26 16.866 26 13C26 9.13401 22.866 6 19 6C15.134 6 12 9.13401 12 13C12 16.866 15.134 20 19 20Z" fill="#cbf3f0" stroke="#2ec4b6" stroke-width="1.392" stroke-linecap="round" stroke-linejoin="round"/> <path fill-rule="evenodd" clip-rule="evenodd" d="M32 22H44Z" fill="#cbf3f0"/> <path d="M32 22H44" stroke="#2ec4b6" stroke-width="1.392" stroke-linecap="round" stroke-linejoin="round"/> <path fill-rule="evenodd" clip-rule="evenodd" d="M32 16H44Z" fill="#cbf3f0"/> <path d="M32 16H44" stroke="#2ec4b6" stroke-width="1.392" stroke-linecap="round" stroke-linejoin="round"/> <path fill-rule="evenodd" clip-rule="evenodd" d="M35 13V25Z" fill="#cbf3f0"/> <path d="M35 13V25" stroke="#2ec4b6" stroke-width="1.392" stroke-linecap="round" stroke-linejoin="round"/> <path fill-rule="evenodd" clip-rule="evenodd" d="M41 13V25Z" fill="#cbf3f0"/> <path d="M41 13V25" stroke="#2ec4b6" stroke-width="1.392" stroke-linecap="round" stroke-linejoin="round"/> <path d="M4 40.8V42H34V40.8C34 36.3196 34 34.0794 33.1281 32.3681C32.3611 30.8628 31.1372 29.6389 29.6319 28.8719C27.9206 28 25.6804 28 21.2 28H16.8C12.3196 28 10.0794 28 8.36808 28.8719C6.86278 29.6389 5.63893 30.8628 4.87195 32.3681C4 34.0794 4 36.3196 4 40.8Z" fill="#cbf3f0" stroke="#2ec4b6" stroke-width="1.392" stroke-linecap="round" stroke-linejoin="round"/> </g>
</svg>